<svg width="25" height="25" viewBox="0 0 25 25" fill="none" xmlns="http://www.w3.org/2000/svg">
<path fill-rule="evenodd" clip-rule="evenodd" d="M22.9167 12.5C22.9167 18.2529 18.253 22.9166 12.5 22.9166C6.74708 22.9166 2.08337 18.2529 2.08337 12.5C2.08337 6.74701 6.74708 2.08331 12.5 2.08331C18.253 2.08331 22.9167 6.74701 22.9167 12.5ZM15.9988 15.9986C15.6937 16.3037 15.199 16.3037 14.8939 15.9986L12.5001 13.6048L10.1062 15.9986C9.80109 16.3037 9.30643 16.3037 9.00133 15.9986C8.69624 15.6935 8.69624 15.1989 9.00133 14.8938L11.3952 12.4999L9.00135 10.1061C8.69625 9.80097 8.69625 9.30631 9.00135 9.00121C9.30645 8.69612 9.80111 8.69612 10.1062 9.00121L12.5001 11.3951L14.8939 9.00122C15.199 8.69613 15.6936 8.69613 15.9987 9.00122C16.3038 9.30632 16.3038 9.80098 15.9987 10.1061L13.6049 12.4999L15.9988 14.8938C16.3039 15.1989 16.3039 15.6935 15.9988 15.9986Z" fill="#5B5D65"/>
</svg>
