<svg width="25" height="25" viewBox="0 0 25 25" fill="none" xmlns="http://www.w3.org/2000/svg">
<path fill-rule="evenodd" clip-rule="evenodd" d="M12.4999 22.9166C18.2529 22.9166 22.9166 18.2529 22.9166 12.5C22.9166 6.74701 18.2529 2.08331 12.4999 2.08331C6.74695 2.08331 2.08325 6.74701 2.08325 12.5C2.08325 18.2529 6.74695 22.9166 12.4999 22.9166ZM17.2833 9.85466C17.5482 9.51407 17.4868 9.02323 17.1462 8.75833C16.8057 8.49344 16.3148 8.55479 16.0499 8.89537L11.876 14.2619C11.7831 14.3812 11.6086 14.3967 11.4962 14.2956L8.85589 11.9193C8.53518 11.6307 8.0412 11.6567 7.75256 11.9774C7.46392 12.2981 7.48992 12.7921 7.81063 13.0807L10.4509 15.457C11.2375 16.1649 12.4596 16.0565 13.1093 15.2212L17.2833 9.85466Z" fill="#FF6C29"/>
</svg>
