<svg width="108" height="20" viewBox="0 0 108 20" fill="none" xmlns="http://www.w3.org/2000/svg">
<path d="M9.10326 1.81699C9.47008 1.07374 10.5299 1.07374 10.8967 1.81699L12.7063 5.48347C12.8519 5.77862 13.1335 5.98319 13.4592 6.03051L17.5054 6.61846C18.3256 6.73765 18.6531 7.74562 18.0596 8.32416L15.1318 11.1781C14.8961 11.4079 14.7885 11.7389 14.8442 12.0632L15.5353 16.0931C15.6754 16.91 14.818 17.533 14.0844 17.1473L10.4653 15.2446C10.174 15.0915 9.82598 15.0915 9.53466 15.2446L5.91562 17.1473C5.18199 17.533 4.32456 16.91 4.46467 16.0931L5.15585 12.0632C5.21148 11.7389 5.10393 11.4079 4.86825 11.1781L1.94038 8.32416C1.34687 7.74562 1.67438 6.73765 2.4946 6.61846L6.54081 6.03051C6.86652 5.98319 7.14808 5.77862 7.29374 5.48347L9.10326 1.81699Z" fill="#F2C94C"/>
<path d="M31.1033 1.81699C31.4701 1.07374 32.5299 1.07374 32.8967 1.81699L34.7063 5.48347C34.8519 5.77862 35.1335 5.98319 35.4592 6.03051L39.5054 6.61846C40.3256 6.73765 40.6531 7.74562 40.0596 8.32416L37.1318 11.1781C36.8961 11.4079 36.7885 11.7389 36.8442 12.0632L37.5353 16.0931C37.6754 16.91 36.818 17.533 36.0844 17.1473L32.4653 15.2446C32.174 15.0915 31.826 15.0915 31.5347 15.2446L27.9156 17.1473C27.182 17.533 26.3246 16.91 26.4647 16.0931L27.1558 12.0632C27.2115 11.7389 27.1039 11.4079 26.8682 11.1781L23.9404 8.32416C23.3469 7.74562 23.6744 6.73765 24.4946 6.61846L28.5408 6.03051C28.8665 5.98319 29.1481 5.77862 29.2937 5.48347L31.1033 1.81699Z" fill="#F2C94C"/>
<path d="M53.1033 1.81699C53.4701 1.07374 54.5299 1.07374 54.8967 1.81699L56.7063 5.48347C56.8519 5.77862 57.1335 5.98319 57.4592 6.03051L61.5054 6.61846C62.3256 6.73765 62.6531 7.74562 62.0596 8.32416L59.1318 11.1781C58.8961 11.4079 58.7885 11.7389 58.8442 12.0632L59.5353 16.0931C59.6754 16.91 58.818 17.533 58.0844 17.1473L54.4653 15.2446C54.174 15.0915 53.826 15.0915 53.5347 15.2446L49.9156 17.1473C49.182 17.533 48.3246 16.91 48.4647 16.0931L49.1558 12.0632C49.2115 11.7389 49.1039 11.4079 48.8682 11.1781L45.9404 8.32416C45.3469 7.74562 45.6744 6.73765 46.4946 6.61846L50.5408 6.03051C50.8665 5.98319 51.1481 5.77862 51.2937 5.48347L53.1033 1.81699Z" fill="#F2C94C"/>
<path d="M75.1033 1.81699C75.4701 1.07374 76.5299 1.07374 76.8967 1.81699L78.7063 5.48347C78.8519 5.77862 79.1335 5.98319 79.4592 6.03051L83.5054 6.61846C84.3256 6.73765 84.6531 7.74562 84.0596 8.32416L81.1318 11.1781C80.8961 11.4079 80.7885 11.7389 80.8442 12.0632L81.5353 16.0931C81.6754 16.91 80.818 17.533 80.0844 17.1473L76.4653 15.2446C76.174 15.0915 75.826 15.0915 75.5347 15.2446L71.9156 17.1473C71.182 17.533 70.3246 16.91 70.4647 16.0931L71.1558 12.0632C71.2115 11.7389 71.1039 11.4079 70.8682 11.1781L67.9404 8.32416C67.3469 7.74562 67.6744 6.73765 68.4946 6.61846L72.5408 6.03051C72.8665 5.98319 73.1481 5.77862 73.2937 5.48347L75.1033 1.81699Z" fill="#F2C94C"/>
<path d="M97.1033 1.81699C97.4701 1.07374 98.5299 1.07374 98.8967 1.81699L100.706 5.48347C100.852 5.77862 101.133 5.98319 101.459 6.03051L105.505 6.61846C106.326 6.73765 106.653 7.74562 106.06 8.32416L103.132 11.1781C102.896 11.4079 102.789 11.7389 102.844 12.0632L103.535 16.0931C103.675 16.91 102.818 17.533 102.084 17.1473L98.4653 15.2446C98.174 15.0915 97.826 15.0915 97.5347 15.2446L93.9156 17.1473C93.182 17.533 92.3246 16.91 92.4647 16.0931L93.1558 12.0632C93.2115 11.7389 93.1039 11.4079 92.8682 11.1781L89.9404 8.32416C89.3469 7.74562 89.6744 6.73765 90.4946 6.61846L94.5408 6.03051C94.8665 5.98319 95.1481 5.77862 95.2937 5.48347L97.1033 1.81699Z" fill="#F2C94C"/>
</svg>
