<svg width="40" height="40" viewBox="0 0 40 40" fill="none" xmlns="http://www.w3.org/2000/svg">
<circle opacity="0.4" cx="20" cy="20" r="19.5" stroke="#242731"/>
<path fill-rule="evenodd" clip-rule="evenodd" d="M20.9334 10.9001C20.5468 10.9001 20.2334 11.2135 20.2334 11.6001C20.2334 11.9867 20.5468 12.3001 20.9334 12.3001C21.822 12.3001 22.702 12.4752 23.5229 12.8152C24.3439 13.1553 25.0898 13.6537 25.7182 14.2821C26.3465 14.9104 26.845 15.6564 27.185 16.4773C27.5251 17.2983 27.7001 18.1782 27.7001 19.0668C27.7001 19.4534 28.0135 19.7668 28.4001 19.7668C28.7867 19.7668 29.1001 19.4534 29.1001 19.0668C29.1001 17.9944 28.8889 16.9324 28.4784 15.9416C28.068 14.9507 27.4665 14.0505 26.7081 13.2921C25.9498 12.5338 25.0495 11.9322 24.0587 11.5218C23.0679 11.1114 22.0059 10.9001 20.9334 10.9001ZM28.4001 26.5335V24.9973C28.4001 24.234 27.9354 23.5476 27.2267 23.2641L25.3282 22.5047C24.4268 22.1441 23.3995 22.5347 22.9653 23.4031L22.8001 23.7335C22.8001 23.7335 20.4668 23.2668 18.6001 21.4001C16.7334 19.5335 16.2668 17.2001 16.2668 17.2001L16.5972 17.0349C17.4655 16.6008 17.8561 15.5735 17.4955 14.6721L16.7361 12.7736C16.4526 12.0649 15.7663 11.6001 15.003 11.6001H13.4668C12.4358 11.6001 11.6001 12.4359 11.6001 13.4668C11.6001 21.7143 18.286 28.4001 26.5334 28.4001C27.5644 28.4001 28.4001 27.5644 28.4001 26.5335ZM20.2334 15.3335C20.2334 14.9469 20.5468 14.6335 20.9334 14.6335C21.5156 14.6335 22.0921 14.7482 22.63 14.9709C23.1679 15.1937 23.6566 15.5203 24.0683 15.932C24.4799 16.3436 24.8065 16.8324 25.0293 17.3702C25.2521 17.9081 25.3668 18.4846 25.3668 19.0668C25.3668 19.4534 25.0534 19.7668 24.6668 19.7668C24.2802 19.7668 23.9668 19.4534 23.9668 19.0668C23.9668 18.6685 23.8883 18.274 23.7359 17.906C23.5834 17.538 23.36 17.2036 23.0783 16.9219C22.7966 16.6403 22.4623 16.4168 22.0942 16.2644C21.7262 16.1119 21.3318 16.0335 20.9334 16.0335C20.5468 16.0335 20.2334 15.7201 20.2334 15.3335Z" fill="#242731"/>
</svg>
