<svg width="40" height="40" viewBox="0 0 40 40" fill="none" xmlns="http://www.w3.org/2000/svg">
<circle opacity="0.4" cx="20" cy="20" r="19.5" stroke="#242731"/>
<path fill-rule="evenodd" clip-rule="evenodd" d="M14.4001 11.6001C12.3382 11.6001 10.6667 13.2716 10.6667 15.3334V24.6668C10.6667 26.7286 12.3382 28.4001 14.4001 28.4001H25.6001C27.6619 28.4001 29.3334 26.7286 29.3334 24.6668V15.3334C29.3334 13.2716 27.6619 11.6001 25.6001 11.6001H14.4001ZM14.7884 15.6843C14.4667 15.4698 14.0321 15.5568 13.8176 15.8784C13.6032 16.2001 13.6901 16.6347 14.0118 16.8492L17.5409 19.2019C19.0301 20.1947 20.9701 20.1947 22.4593 19.2019L25.9884 16.8492C26.31 16.6347 26.397 16.2001 26.1825 15.8784C25.9681 15.5568 25.5335 15.4698 25.2118 15.6843L21.6827 18.037C20.6638 18.7163 19.3364 18.7163 18.3175 18.037L14.7884 15.6843Z" fill="#242731"/>
</svg>
