<svg width="40" height="40" viewBox="0 0 40 40" fill="none" xmlns="http://www.w3.org/2000/svg">
<path d="M0 20C0 31.0457 8.95431 40 20 40C31.0457 40 40 31.0457 40 20C40 8.95431 31.0457 0 20 0C8.95431 0 0 8.95431 0 20Z" fill="#25D366"/>
<path fill-rule="evenodd" clip-rule="evenodd" d="M26.3 13.5875C24.6125 11.9 22.3625 11 20 11C15.05 11 11 15.05 11 20C11 21.575 11.45 23.15 12.2375 24.5L11 29L15.725 27.7625C17.075 28.4375 18.5375 28.8875 20 28.8875C24.95 28.8875 29 24.8375 29 19.8875C29 17.525 27.9875 15.275 26.3 13.5875ZM20 27.425C18.65 27.425 17.3 27.0875 16.175 26.4125L15.95 26.3L13.1375 27.0875L13.925 24.3875L13.7 24.05C12.9125 22.8125 12.575 21.4625 12.575 20.1125C12.575 16.0625 15.95 12.6875 20 12.6875C22.025 12.6875 23.825 13.475 25.2875 14.825C26.75 16.2875 27.425 18.0875 27.425 20.1125C27.425 24.05 24.1625 27.425 20 27.425ZM24.05 21.8C23.825 21.6875 22.7 21.125 22.475 21.125C22.25 21.0125 22.1375 21.0125 22.025 21.2375C21.9125 21.4625 21.4625 21.9125 21.35 22.1375C21.2375 22.25 21.125 22.25 20.9 22.25C20.675 22.1375 20 21.9125 19.1 21.125C18.425 20.5625 17.975 19.775 17.8625 19.55C17.75 19.325 17.8625 19.2125 17.975 19.1C18.0875 18.9875 18.2 18.875 18.3125 18.7625C18.425 18.65 18.425 18.5375 18.5375 18.425C18.65 18.3125 18.5375 18.2 18.5375 18.0875C18.5375 17.975 18.0875 16.85 17.8625 16.4C17.75 16.0625 17.525 16.0625 17.4125 16.0625C17.3 16.0625 17.1875 16.0625 16.9625 16.0625C16.85 16.0625 16.625 16.0625 16.4 16.2875C16.175 16.5125 15.6125 17.075 15.6125 18.2C15.6125 19.325 16.4 20.3375 16.5125 20.5625C16.625 20.675 18.0875 23.0375 20.3375 23.9375C22.25 24.725 22.5875 24.5 23.0375 24.5C23.4875 24.5 24.3875 23.9375 24.5 23.4875C24.725 22.925 24.725 22.475 24.6125 22.475C24.5 21.9125 24.275 21.9125 24.05 21.8Z" fill="white"/>
</svg>
