<svg width="247" height="28" viewBox="0 0 247 28" fill="none" xmlns="http://www.w3.org/2000/svg">
<path fill-rule="evenodd" clip-rule="evenodd" d="M147.587 1.75281L145.733 3.37732L146.337 3.4165L146.942 3.45567V5.11834V6.781H149.316H151.69V5.11127V3.44155H152.297H152.905L151.624 2.14802C150.919 1.43646 150.14 0.690988 149.892 0.491391L149.441 0.128418L147.587 1.75281ZM129.36 12.3682V22.9645H131.729H134.098L134.135 17.7719C134.172 12.7238 134.18 12.5692 134.443 12.2169C134.958 11.5259 135.457 11.3406 136.804 11.3406C137.801 11.3406 138.104 11.3886 138.472 11.6039C139.305 12.0924 139.302 12.0708 139.346 17.7948L139.386 22.9645H141.761H144.135L144.088 17.2168C144.047 12.2035 144.013 11.3837 143.82 10.8004C143.391 9.50317 142.265 8.43056 140.866 7.98629C139.983 7.70603 137.176 7.59866 136.127 7.80506C135.692 7.89073 135.06 8.10099 134.722 8.2722L134.109 8.58354V5.17768V1.77182H131.734H129.36V12.3682ZM0.770002 2.71508C0.770002 2.73936 0.596751 3.61532 0.385001 4.66173C0.17325 5.70814 0 6.5841 0 6.60838C0 6.63265 1.58813 6.65256 3.52917 6.65256H7.05835V14.8085V22.9645H9.56085H12.0634V14.8085V6.65256H15.2437H18.424L18.8165 4.66173L19.2091 2.6709H9.98949C4.91877 2.6709 0.770002 2.69081 0.770002 2.71508ZM53.9001 12.8177V22.9645H56.3385H58.7768V19.0471V15.1296H62.8169H66.8569L66.9249 14.8407C67.0569 14.2804 67.6318 11.3681 67.6318 11.2605C67.6318 11.2004 65.6538 11.1362 63.2364 11.1175L58.841 11.0838L58.8058 8.86816L58.7708 6.65256H63.4397H68.1086L68.4552 4.8865C68.6458 3.91523 68.8311 3.01936 68.867 2.89567C68.9287 2.68336 68.5138 2.6709 61.4162 2.6709H53.9001V12.8177ZM159.608 6.09217C159.559 6.14137 159.519 6.59849 159.519 7.10788V8.0342L158.555 8.17767C156.474 8.48734 155.211 9.20339 154.585 10.4274C154.27 11.0425 154.197 11.3622 154.151 12.3307C154.055 14.3505 154.551 15.6038 155.766 16.4096C156.666 17.0063 157.429 17.1785 160.068 17.3806C162.341 17.5546 162.919 17.6724 163.142 18.0067C163.334 18.2947 163.24 18.9434 162.97 19.1877C162.72 19.4144 162.402 19.4372 158.647 19.4966L154.593 19.5608L154.288 21.2111C154.12 22.1186 154.006 22.885 154.036 22.9142C154.065 22.9433 154.993 23.0046 156.098 23.0502L158.107 23.1332V23.5627V23.9921H159.711H161.315V23.5483C161.315 23.0505 161.32 23.0488 163.013 22.9036C164.872 22.7441 166.428 21.9987 167.094 20.9478C167.619 20.1191 167.73 19.638 167.731 18.2005C167.732 16.2261 167.297 15.2427 166.079 14.4695C165.211 13.9184 164.441 13.7329 162.15 13.5218C159.622 13.2891 159.273 13.2327 158.909 12.9979C158.574 12.7821 158.523 12.2295 158.802 11.8468C158.975 11.611 159.196 11.5955 162.892 11.5586L166.8 11.5196L167.083 10.0815C167.238 9.29047 167.397 8.51328 167.434 8.3544L167.503 8.06541H165.12H162.738L162.7 7.06999L162.663 6.07458L161.18 6.03861C160.365 6.01884 159.657 6.04285 159.608 6.09217ZM22.6839 7.81289C20.9394 8.10677 19.5302 8.89899 18.8537 9.96607C18.0725 11.1983 17.9286 11.945 17.8705 15.0654C17.811 18.2671 17.9423 19.2489 18.6129 20.6151C19.268 21.9501 20.4441 22.7581 22.3521 23.1842C23.6854 23.4819 27.4402 23.4749 28.6826 23.1723C31.1811 22.5639 32.4304 21.3365 32.9241 19.0052C33.1733 17.8284 33.1733 13.2015 32.9241 12.0247C32.4199 9.64382 31.1144 8.39537 28.5917 7.88161C27.5256 7.66442 23.8206 7.62139 22.6839 7.81289ZM40.5534 7.87185C38.4817 8.28813 37.2796 9.11605 36.4938 10.6677C35.8419 11.9556 35.8097 12.4161 35.8073 20.492L35.8051 27.9737H38.1792H40.5534V25.3633V22.753L41.4838 23.077C42.3049 23.3629 42.6179 23.4005 44.1468 23.3958C46.7736 23.388 48.0593 23.0032 49.2818 21.8589C49.9777 21.2073 50.4848 20.1884 50.76 18.8886C51.0131 17.6928 51.012 13.3316 50.7581 12.1325C50.237 9.6704 48.9468 8.40423 46.4301 7.88444C45.2141 7.63321 41.7775 7.62588 40.5534 7.87185ZM101.747 7.80442C98.8067 8.33565 97.5913 9.54556 97.2819 12.2494C97.2098 12.8799 97.1502 15.5486 97.1496 18.1801L97.1485 22.9645H99.5869H102.025V17.7563C102.025 12.004 102.026 11.9998 102.829 11.5756C103.132 11.4158 103.575 11.3544 104.464 11.3486C105.935 11.339 106.57 11.532 106.911 12.0924C107.143 12.4734 107.158 12.7969 107.158 17.7306L107.159 22.9645H109.539H111.919L111.881 17.1526C111.843 11.4214 111.839 11.3305 111.546 10.6058C111.029 9.32361 109.959 8.46152 108.281 7.97511C107.502 7.74944 102.74 7.62511 101.747 7.80442ZM174.544 7.88623C172.14 8.41233 170.683 9.85728 170.152 12.2397C169.888 13.4256 169.923 17.9146 170.204 18.9506C170.786 21.0971 171.856 22.1295 174.107 22.7195C175.26 23.0214 179.448 23.1984 181.604 23.0362L182.836 22.9436L183.147 21.2522L183.459 19.5608L179.798 19.4966C176.414 19.4373 176.104 19.4128 175.693 19.171C175.164 18.8597 174.85 18.3449 174.741 17.6087L174.661 17.0695L178.8 17.0307C183.523 16.9866 183.603 16.9705 184.028 15.9875C184.56 14.7554 184.457 12.0372 183.824 10.6251C183.201 9.23781 181.845 8.26873 179.967 7.87056C178.838 7.63115 175.667 7.64027 174.544 7.88623ZM211.672 7.93478C209.287 8.27284 208.004 9.04914 207.212 10.6351C206.575 11.9094 206.423 12.9577 206.433 16.0287C206.445 19.5833 206.759 20.8749 207.916 22.1321C209.088 23.4046 210.836 23.9203 213.932 23.9075C216.963 23.8951 218.549 23.4514 219.707 22.292C220.88 21.1179 221.236 19.8597 221.331 16.5425C221.489 11.074 220.5 9.02024 217.301 8.17857C216.171 7.8811 213.015 7.74444 211.672 7.93478ZM228.104 7.99669C225.934 8.39113 224.729 9.38424 224.124 11.2764C223.926 11.8951 223.892 12.6968 223.845 17.7306L223.791 23.4783H226.177H228.562V18.0774C228.562 12.1135 228.562 12.1122 229.358 11.7762C229.988 11.5102 231.639 11.5462 232.081 11.8355C232.777 12.2923 232.797 12.4709 232.797 18.2081V23.4783H235.102H237.407L237.444 18.0288C237.48 12.7273 237.489 12.5694 237.75 12.2169C238.14 11.6922 239.141 11.4565 240.22 11.6358C241.151 11.7906 241.469 12.022 241.651 12.6764C241.726 12.9492 241.779 15.2582 241.78 18.3086L241.781 23.4783H244.091H246.401V18.0432C246.401 12.2413 246.344 11.544 245.787 10.4025C245.004 8.80009 243.452 8.0148 240.754 7.85541C238.528 7.72401 236.676 8.1471 235.671 9.01625L235.171 9.44897L234.7 9.07559C233.303 7.96792 230.649 7.53392 228.104 7.99669ZM74.6125 8.07299C71.5043 8.37469 69.9754 9.61723 69.5645 12.1755C69.488 12.6514 69.43 15.1502 69.4295 17.9874L69.4285 22.9645H71.797H74.1657L74.2033 17.9173C74.2374 13.3505 74.2625 12.8372 74.4674 12.5246C74.9368 11.808 75.2193 11.726 77.2161 11.726H79.0481L79.1786 11.0838C79.2505 10.7306 79.4159 9.91444 79.5463 9.27018L79.7835 8.0988L78.9372 8.01878C77.8705 7.91796 75.9632 7.94185 74.6125 8.07299ZM81.8141 8.3544C81.644 9.0806 81.2352 11.1936 81.2352 11.3458C81.2352 11.481 81.954 11.5235 84.7964 11.5563C87.8092 11.5912 88.417 11.6302 88.7429 11.8092C89.424 12.1832 89.6208 12.5074 89.6821 13.3565C89.735 14.0877 89.7221 14.1353 89.4975 14.0378C88.599 13.6481 87.4863 13.4743 85.8436 13.4674C83.0153 13.4553 81.3395 14.0415 80.4772 15.3444C79.9527 16.1369 79.7832 17.0121 79.8428 18.6213C79.8869 19.8154 79.938 20.0627 80.2765 20.7254C80.7483 21.6485 81.455 22.2142 82.6201 22.6014C83.4239 22.8685 83.7576 22.8908 87.6518 22.9374C92.168 22.9915 92.8962 22.9219 93.5475 22.3733C94.3089 21.7321 94.3445 21.4474 94.3007 16.3437L94.261 11.726L93.8877 10.9168C93.4257 9.91534 92.5385 9.08317 91.5278 8.70325C90.1047 8.16816 89.1169 8.06541 85.3972 8.06541H81.8817L81.8141 8.3544ZM119.585 8.1968C117.116 8.61385 115.621 9.7196 114.985 11.5975C114.381 13.3832 114.377 17.7859 114.977 19.5316C115.535 21.1535 116.561 22.0708 118.445 22.6298C119.572 22.964 121.902 23.1262 124.171 23.0284L126.232 22.9394L126.521 21.4428C126.68 20.6196 126.838 19.8306 126.872 19.6893C126.932 19.4379 126.868 19.4324 123.88 19.4324C121.045 19.4324 120.794 19.4137 120.377 19.1719C119.538 18.6855 119.414 18.2161 119.414 15.515C119.414 13.3957 119.442 13.0833 119.671 12.6251C120.125 11.7162 120.494 11.6226 123.537 11.6447C124.975 11.6552 126.152 11.6424 126.152 11.6161C126.152 11.5901 126.296 10.8591 126.473 9.99202C126.649 9.12492 126.794 8.33668 126.794 8.24035C126.794 8.09688 126.2 8.06811 123.489 8.08056C121.671 8.08878 119.915 8.14119 119.585 8.1968ZM146.942 15.515V22.9645H149.316H151.69V15.515V8.06541H149.316H146.942V15.515ZM198.379 8.32242C195.244 8.70787 193.63 10.0293 193.071 12.6669C192.82 13.856 192.825 17.9692 193.08 19.1733C193.582 21.5467 194.919 22.8041 197.461 23.2951C198.177 23.4333 199.281 23.4882 201.28 23.4847C202.826 23.4821 204.119 23.453 204.152 23.4198C204.235 23.3367 204.809 20.5266 204.815 20.1709L204.82 19.8819L202.158 19.8812C197.656 19.88 197.568 19.8019 197.571 15.7718C197.573 13.5751 197.594 13.3558 197.854 12.866C198.304 12.0198 198.711 11.9186 201.664 11.9186H204.15L204.483 10.1614C204.667 9.19492 204.784 8.37123 204.744 8.33115C204.627 8.21389 199.321 8.20669 198.379 8.32242ZM178.841 11.2073C179.429 11.4533 179.789 12.2207 179.793 13.2378L179.795 13.9791L177.261 13.9443L174.726 13.9095L174.765 13.0873C174.841 11.4718 175.373 11.0207 177.201 11.0201C177.957 11.0197 178.556 11.0881 178.841 11.2073ZM27.3257 11.5015C28.1427 11.9014 28.2843 12.4008 28.3404 15.0757C28.4151 18.6433 28.1428 19.4545 26.7671 19.7626C25.8681 19.964 24.1883 19.8626 23.6342 19.5734C23.3502 19.4252 23.1124 19.1474 22.9283 18.749C22.6732 18.1963 22.6509 17.9413 22.6509 15.5792C22.6509 12.0835 22.8653 11.5449 24.3663 11.2706C25.2177 11.1152 26.7866 11.2375 27.3257 11.5015ZM45.1148 11.4632C45.4568 11.6061 45.6375 11.805 45.8462 12.2675C46.0864 12.8001 46.1302 13.1727 46.1748 15.0654C46.2691 19.0588 45.9288 19.7288 43.7421 19.8563C42.4012 19.9345 41.559 19.7172 41.078 19.1687C40.5799 18.6009 40.5242 18.1534 40.5754 15.1268C40.6108 13.0295 40.6543 12.5577 40.8449 12.2088C41.2868 11.3992 42.0929 11.1226 43.7299 11.2186C44.2419 11.2487 44.865 11.3586 45.1148 11.4632ZM215.66 11.7718C215.869 11.8929 216.158 12.1922 216.302 12.4369C216.544 12.8503 216.563 13.0958 216.563 15.9003C216.563 18.7025 216.544 18.9509 216.302 19.3682C215.898 20.0639 215.36 20.2673 213.932 20.2642C212.403 20.261 211.782 20.0198 211.42 19.2882C211.205 18.8525 211.17 18.4527 211.142 16.0929C211.097 12.4005 211.319 11.807 212.849 11.5345C213.719 11.3797 215.198 11.5045 215.66 11.7718ZM88.9503 16.743C89.5747 17.0661 89.7052 17.3916 89.7052 18.6262V19.7535L87.5556 19.753C85.0309 19.7525 84.6895 19.6402 84.4445 18.73C84.1273 17.5508 84.6186 16.7134 85.7292 16.5406C86.6571 16.3962 88.5044 16.5122 88.9503 16.743ZM186.472 18.7508C185.664 19.1673 185.399 19.6843 185.399 20.8453C185.399 22.0062 185.664 22.5232 186.472 22.9397C186.972 23.1978 187.199 23.2309 188.224 23.1966C189.493 23.1541 189.823 23.0124 190.375 22.2729C190.593 21.9808 190.64 21.7285 190.64 20.8453C190.64 19.962 190.593 19.7097 190.375 19.4176C189.823 18.6781 189.493 18.5364 188.224 18.4939C187.199 18.4596 186.972 18.4927 186.472 18.7508Z" fill="white"/>
<path fill-rule="evenodd" clip-rule="evenodd" d="M0.770002 2.74121C0.770002 2.76548 0.596751 3.64145 0.385001 4.68785C0.17325 5.73426 0 6.61022 0 6.6345C0 6.65877 1.58813 6.67868 3.52917 6.67868H7.05835V14.8347V22.9906H9.56085H12.0634V14.8347V6.67868H15.2437H18.424L18.8165 4.68785L19.2091 2.69702H9.98949C4.91877 2.69702 0.770002 2.71693 0.770002 2.74121ZM22.6839 7.83901C20.9394 8.13289 19.5302 8.92511 18.8537 9.99219C18.0725 11.2245 17.9286 11.9711 17.8705 15.0915C17.811 18.2932 17.9423 19.275 18.6129 20.6412C19.268 21.9762 20.4441 22.7842 22.3521 23.2103C23.6854 23.508 27.4402 23.5011 28.6826 23.1985C31.1811 22.59 32.4304 21.3627 32.9241 19.0313C33.1733 17.8546 33.1733 13.2276 32.9241 12.0508C32.4199 9.66994 31.1144 8.42149 28.5917 7.90773C27.5256 7.69054 23.8206 7.64751 22.6839 7.83901ZM40.5534 7.89797C38.4817 8.31424 37.2796 9.14217 36.4938 10.6939C35.8419 11.9817 35.8097 12.4422 35.8073 20.5182L35.8051 27.9998H38.1792H40.5534V25.3894V22.7791L41.4838 23.1032C42.3049 23.3891 42.6179 23.4266 44.1468 23.4219C46.7736 23.4141 48.0593 23.0293 49.2818 21.885C49.9777 21.2334 50.4848 20.2145 50.76 18.9147C51.0131 17.7189 51.012 13.3577 50.7581 12.1586C50.237 9.69652 48.9468 8.43035 46.4301 7.91056C45.2141 7.65933 41.7775 7.652 40.5534 7.89797ZM27.3257 11.5276C28.1427 11.9275 28.2843 12.4269 28.3404 15.1018C28.4151 18.6694 28.1428 19.4806 26.7671 19.7887C25.8681 19.9901 24.1883 19.8887 23.6342 19.5996C23.3502 19.4513 23.1124 19.1735 22.9283 18.7751C22.6732 18.2224 22.6509 17.9675 22.6509 15.6053C22.6509 12.1097 22.8653 11.571 24.3663 11.2968C25.2177 11.1414 26.7866 11.2636 27.3257 11.5276ZM45.1148 11.4893C45.4568 11.6323 45.6375 11.8311 45.8462 12.2936C46.0864 12.8262 46.1302 13.1988 46.1748 15.0915C46.2691 19.0849 45.9288 19.755 43.7421 19.8824C42.4012 19.9606 41.559 19.7433 41.078 19.1948C40.5799 18.627 40.5242 18.1795 40.5754 15.1529C40.6108 13.0556 40.6543 12.5839 40.8449 12.2349C41.2868 11.4253 42.0929 11.1487 43.7299 11.2447C44.2419 11.2748 44.865 11.3847 45.1148 11.4893Z" fill="#FF6A2C"/>
<path d="M152.974 3.4679C152.644 3.4679 152.396 3.4679 152.147 3.46378C151.851 3.45888 151.702 3.4555 151.709 3.78451C151.727 4.6745 151.716 5.56532 151.714 6.45613C151.714 6.56306 151.7 6.66999 151.69 6.80735H146.942C146.942 6.34673 146.942 5.90866 146.942 5.45873C146.942 4.86979 146.935 4.2495 146.942 3.66056C146.942 3.43271 146.942 3.4679 146.75 3.4679C146.493 3.4679 146.004 3.46378 145.659 3.46378L149.491 0L152.974 3.4679Z" fill="#EC6124"/>
<path d="M190.832 20.7312C190.847 22.2014 189.571 23.4926 188.087 23.5048C186.602 23.517 185.33 22.2462 185.314 20.7577C185.298 19.2925 186.573 18.0014 188.059 17.9821C189.523 17.9678 190.817 19.2478 190.832 20.7312Z" fill="#EC6124"/>
</svg>
